<?xml version="1.0" encoding="UTF-8" standalone="no"?>
<!DOCTYPE svg PUBLIC "-//W3C//DTD SVG 1.1//EN" "http://www.w3.org/Graphics/SVG/1.1/DTD/svg11.dtd">
<svg width="360" height="360" viewBox="0 0 360 360" version="1.1" xmlns="http://www.w3.org/2000/svg">
<rect x="0" y="0" width="360" height="360" style="fill:white;"/>
<circle cx="180.0" cy="180.0" r="114.45" fill="rgb(123, 156, 183)" />
<circle cx="180.07831" cy="180.08008" r="26.0" fill="rgb(48, 101, 124)" />
<circle cx="179.98608" cy="180.12523" r="24.5" fill="rgb(232, 90, 243)" />
<circle cx="179.88252" cy="180.07616" r="22.45" fill="rgb(88, 27, 190)" />
<circle cx="179.85333" cy="179.95305" r="22.0" fill="rgb(224, 31, 69)" />
<circle cx="179.93831" cy="179.84373" r="14.65" fill="rgb(252, 70, 218)" />
<circle cx="180.08868" cy="179.84106" r="13.75" fill="rgb(115, 164, 158)" />
<circle cx="180.19295" cy="179.9655" r="13.2" fill="rgb(243, 125, 241)" />
<circle cx="180.11429" cy="179.74438" r="13.05" fill="rgb(170, 215, 106)" />
<circle cx="180.2837" cy="179.9229" r="12.5" fill="rgb(122, 115, 113)" />
<circle cx="180.25075" cy="180.17886" r="11.65" fill="rgb(227, 151, 2)" />
<circle cx="180.02132" cy="180.32129" r="10.0" fill="rgb(109, 72, 246)" />
<circle cx="179.75462" cy="180.22954" r="9.9" fill="rgb(223, 19, 167)" />
<circle cx="179.65309" cy="179.95363" r="8.85" fill="rgb(13, 157, 48)" />
<circle cx="179.80882" cy="179.69025" r="8.45" fill="rgb(28, 145, 232)" />
<circle cx="180.12321" cy="179.64264" r="7.95" fill="rgb(242, 122, 249)" />
<circle cx="180.36772" cy="179.86418" r="7.55" fill="rgb(9, 10, 245)" />
<circle cx="180.35007" cy="180.20564" r="7.35" fill="rgb(125, 127, 219)" />
<circle cx="180.06471" cy="180.41498" r="7.05" fill="rgb(119, 178, 22)" />
<circle cx="179.7105" cy="180.32333" r="6.6" fill="rgb(146, 17, 93)" />
<circle cx="179.55244" cy="179.9801" r="6.6" fill="rgb(218, 223, 241)" />
<circle cx="179.72357" cy="179.62982" r="6.15" fill="rgb(212, 233, 50)" />
<circle cx="180.11479" cy="179.53806" r="5.75" fill="rgb(211, 215, 65)" />
<circle cx="180.44286" cy="179.79028" r="5.15" fill="rgb(172, 116, 10)" />
<circle cx="180.45541" cy="180.2159" r="5.1" fill="rgb(85, 242, 85)" />
<circle cx="180.12471" cy="180.50276" r="5.0" fill="rgb(69, 187, 68)" />
<circle cx="179.68152" cy="180.42613" r="5.0" fill="rgb(203, 80, 6)" />
<circle cx="179.45453" cy="180.02402" r="4.7" fill="rgb(60, 163, 57)" />
<circle cx="179.62662" cy="179.58264" r="4.45" fill="rgb(20, 111, 16)" />
<circle cx="180.08868" cy="179.43289" r="4.35" fill="rgb(117, 74, 191)" />
<circle cx="180.50711" cy="179.70238" r="4.15" fill="rgb(230, 55, 64)" />
<circle cx="180.56462" cy="180.20882" r="4.0" fill="rgb(121, 241, 128)" />
<circle cx="180.20055" cy="180.58244" r="3.95" fill="rgb(168, 235, 2)" />
<circle cx="179.6689" cy="180.53598" r="3.8" fill="rgb(201, 127, 114)" />
<circle cx="179.36165" cy="180.08507" r="3.75" fill="rgb(172, 70, 209)" />
<circle cx="179.51967" cy="179.55028" r="3.7" fill="rgb(106, 251, 158)" />
<circle cx="180.04475" cy="179.3295" r="3.7" fill="rgb(179, 126, 254)" />
<circle cx="180.55865" cy="179.60187" r="3.7" fill="rgb(235, 253, 82)" />
<circle cx="180.67542" cy="180.18387" r="3.6" fill="rgb(13, 44, 171)" />
<circle cx="180.29117" cy="180.65193" r="3.55" fill="rgb(84, 229, 207)" />
<circle cx="179.6736" cy="180.65073" r="3.55" fill="rgb(101, 7, 249)" />
<circle cx="179.27603" cy="180.1626" r="3.5" fill="rgb(199, 249, 146)" />
<circle cx="179.40465" cy="179.53407" r="3.45" fill="rgb(249, 252, 215)" />
<circle cx="179.98322" cy="179.23018" r="3.45" fill="rgb(105, 128, 173)" />
<circle cx="180.59576" cy="179.49037" r="3.4" fill="rgb(148, 182, 157)" />
<circle cx="180.78549" cy="180.14076" r="3.35" fill="rgb(9, 202, 52)" />
<circle cx="180.39534" cy="180.70926" r="3.25" fill="rgb(74, 7, 66)" />
<circle cx="179.69633" cy="180.76816" r="3.15" fill="rgb(121, 76, 226)" />
<circle cx="179.19987" cy="180.25575" r="3.15" fill="rgb(187, 17, 251)" />
<circle cx="179.2836" cy="179.53514" r="3.15" fill="rgb(194, 177, 143)" />
<circle cx="179.9045" cy="179.13727" r="3.15" fill="rgb(228, 173, 75)" />
<circle cx="180.61697" cy="179.3697" r="3.15" fill="rgb(111, 60, 62)" />
<circle cx="180.89246" cy="180.07953" r="3.1" fill="rgb(230, 254, 120)" />
<circle cx="180.51154" cy="180.75261" r="3.05" fill="rgb(92, 40, 217)" />
<circle cx="179.73755" cy="180.88594" r="3.05" fill="rgb(168, 47, 136)" />
<circle cx="179.13525" cy="180.3634" r="3.05" fill="rgb(115, 17, 10)" />
<circle cx="179.15874" cy="179.55438" r="3.05" fill="rgb(194, 72, 98)" />
<circle cx="179.80931" cy="179.05301" r="3.0" fill="rgb(103, 239, 225)" />
<circle cx="180.62097" cy="179.24185" r="3.0" fill="rgb(217, 65, 164)" />
<circle cx="180.994" cy="180.00041" r="2.9" fill="rgb(59, 208, 251)" />
<circle cx="180.63806" cy="180.78035" r="2.85" fill="rgb(177, 9, 153)" />
<circle cx="179.79741" cy="181.00172" r="2.85" fill="rgb(0, 249, 123)" />
<circle cx="179.08409" cy="180.48418" r="2.8" fill="rgb(42, 147, 43)" />
<circle cx="179.03235" cy="179.59239" r="2.8" fill="rgb(148, 69, 61)" />
<circle cx="179.69864" cy="178.97957" r="2.8" fill="rgb(106, 15, 93)" />
<circle cx="180.60674" cy="179.10895" r="2.8" fill="rgb(235, 21, 4)" />
<circle cx="181.08777" cy="179.90399" r="2.75" fill="rgb(168, 243, 205)" />
<circle cx="180.773" cy="180.79103" r="2.75" fill="rgb(43, 113, 129)" />
<circle cx="179.87582" cy="181.1131" r="2.7" fill="rgb(163, 246, 123)" />
<circle cx="179.0482" cy="180.61646" r="2.65" fill="rgb(13, 165, 101)" />
<circle cx="178.9068" cy="179.64955" r="2.65" fill="rgb(144, 14, 191)" />
<circle cx="179.57373" cy="178.919" r="2.65" fill="rgb(50, 75, 200)" />
<circle cx="180.57343" cy="178.97328" r="2.65" fill="rgb(71, 130, 122)" />
<circle cx="181.17151" cy="179.79108" r="2.65" fill="rgb(11, 178, 29)" />
<circle cx="180.91426" cy="180.78342" r="2.6" fill="rgb(82, 255, 215)" />
<circle cx="179.97243" cy="181.21768" r="2.6" fill="rgb(150, 41, 30)" />
<circle cx="179.02914" cy="180.75847" r="2.6" fill="rgb(15, 233, 102)" />
<circle cx="178.78452" cy="179.72594" r="2.6" fill="rgb(106, 216, 183)" />
<circle cx="179.43604" cy="178.87326" r="2.6" fill="rgb(82, 181, 199)" />
<circle cx="180.52052" cy="178.83719" r="2.55" fill="rgb(36, 78, 92)" />
<circle cx="181.24306" cy="179.66273" r="2.55" fill="rgb(120, 96, 212)" />
<circle cx="181.05965" cy="180.75653" r="2.55" fill="rgb(165, 232, 173)" />
<circle cx="180.08655" cy="181.31316" r="2.55" fill="rgb(75, 237, 97)" />
<circle cx="179.02835" cy="180.90819" r="2.55" fill="rgb(87, 33, 204)" />
<circle cx="178.66792" cy="179.82135" r="2.55" fill="rgb(220, 17, 218)" />
<circle cx="179.28728" cy="178.84407" r="2.55" fill="rgb(224, 226, 223)" />
<circle cx="180.44775" cy="178.70313" r="2.5" fill="rgb(158, 73, 89)" />
<circle cx="181.30035" cy="179.52032" r="2.5" fill="rgb(174, 167, 213)" />
<circle cx="181.20682" cy="180.70964" r="2.45" fill="rgb(223, 204, 39)" />
<circle cx="180.21727" cy="181.3972" r="2.45" fill="rgb(150, 199, 1)" />
<circle cx="179.04697" cy="181.06345" r="2.45" fill="rgb(247, 190, 223)" />
<circle cx="178.55945" cy="179.93533" r="2.4" fill="rgb(4, 128, 46)" />
<circle cx="179.12935" cy="178.833" r="2.4" fill="rgb(181, 45, 83)" />
<circle cx="180.35512" cy="178.57353" r="2.4" fill="rgb(181, 151, 11)" />
<circle cx="181.34148" cy="179.36543" r="2.4" fill="rgb(167, 58, 199)" />
<circle cx="181.35332" cy="180.64227" r="2.4" fill="rgb(85, 112, 245)" />
<circle cx="180.3634" cy="181.46768" r="2.4" fill="rgb(45, 210, 32)" />
<circle cx="179.08594" cy="181.22195" r="2.35" fill="rgb(164, 149, 171)" />
<circle cx="178.46146" cy="180.06711" r="2.35" fill="rgb(116, 20, 148)" />
<circle cx="178.96434" cy="178.8414" r="2.35" fill="rgb(41, 115, 196)" />
<circle cx="180.24289" cy="178.45093" r="2.35" fill="rgb(8, 154, 170)" />
<circle cx="181.36472" cy="179.19983" r="2.35" fill="rgb(165, 248, 147)" />
<circle cx="181.49667" cy="180.55424" r="2.3" fill="rgb(116, 145, 22)" />
<circle cx="180.5235" cy="181.5225" r="2.3" fill="rgb(5, 131, 24)" />
<circle cx="179.14592" cy="181.38127" r="2.3" fill="rgb(153, 215, 61)" />
<circle cx="178.37627" cy="180.21567" r="2.3" fill="rgb(39, 48, 133)" />
<circle cx="178.79454" cy="178.87042" r="2.25" fill="rgb(143, 165, 152)" />
<circle cx="180.11166" cy="178.33775" r="2.25" fill="rgb(172, 85, 62)" />
<circle cx="181.36853" cy="179.02556" r="2.25" fill="rgb(52, 152, 182)" />
<circle cx="181.63432" cy="180.44565" r="2.25" fill="rgb(214, 97, 233)" />
<circle cx="180.69588" cy="181.55981" r="2.25" fill="rgb(55, 21, 40)" />
<circle cx="179.22731" cy="181.53891" r="2.25" fill="rgb(31, 89, 17)" />
<circle cx="178.30603" cy="180.3797" r="2.25" fill="rgb(203, 119, 104)" />
<circle cx="178.62231" cy="178.92088" r="2.25" fill="rgb(48, 0, 93)" />
<circle cx="179.9623" cy="178.2364" r="2.2" fill="rgb(173, 185, 146)" />
<circle cx="181.3516" cy="178.8448" r="2.2" fill="rgb(65, 106, 188)" />
<circle cx="181.76376" cy="180.31686" r="2.2" fill="rgb(133, 123, 14)" />
<circle cx="180.87863" cy="181.57787" r="2.2" fill="rgb(131, 173, 237)" />
<circle cx="179.3302" cy="181.69226" r="2.2" fill="rgb(116, 113, 176)" />
<circle cx="178.25284" cy="180.55765" r="2.2" fill="rgb(228, 82, 233)" />
<circle cx="178.45018" cy="178.99344" r="2.15" fill="rgb(180, 5, 194)" />
<circle cx="179.79591" cy="178.14922" r="2.15" fill="rgb(232, 130, 166)" />
<circle cx="181.31285" cy="178.65993" r="2.15" fill="rgb(2, 186, 225)" />
<circle cx="181.88248" cy="180.16855" r="2.15" fill="rgb(85, 233, 188)" />
<circle cx="181.06963" cy="181.57515" r="2.1" fill="rgb(213, 221, 50)" />
<circle cx="179.45444" cy="181.83878" r="2.1" fill="rgb(121, 111, 33)" />
<circle cx="178.21857" cy="180.74774" r="2.05" fill="rgb(210, 32, 185)" />
</svg>
