<?xml version="1.0" encoding="UTF-8" standalone="no"?>
<!DOCTYPE svg PUBLIC "-//W3C//DTD SVG 1.1//EN" "http://www.w3.org/Graphics/SVG/1.1/DTD/svg11.dtd">
<svg width="360" height="360" viewBox="0 0 360 360" version="1.1" xmlns="http://www.w3.org/2000/svg">
<rect x="0" y="0" width="360" height="360" style="fill:white;"/>
<circle cx="180.0" cy="180.0" r="47.923622" fill="rgb(199, 9, 190)" />
<circle cx="110.72325" cy="167.2923" r="22.408903" fill="rgb(238, 160, 163)" />
<circle cx="174.71088" cy="110.46081" r="21.713203" fill="rgb(217, 209, 236)" />
<circle cx="244.18149" cy="204.66492" r="20.72375" fill="rgb(231, 238, 116)" />
<circle cx="133.57333" cy="129.58871" r="20.5" fill="rgb(180, 20, 25)" />
<circle cx="242.8286" cy="165.52844" r="16.405973" fill="rgb(56, 107, 218)" />
<circle cx="224.06825" cy="133.64659" r="15.82971" fill="rgb(78, 41, 72)" />
<circle cx="122.81566" cy="207.6464" r="15.46663" fill="rgb(37, 108, 52)" />
<circle cx="143.08118" cy="231.69395" r="15.366069" fill="rgb(44, 244, 45)" />
<circle cx="172.41655" cy="243.0944" r="14.991377" fill="rgb(79, 120, 222)" />
<circle cx="202.52104" cy="238.80138" r="14.392444" fill="rgb(5, 238, 30)" />
<circle cx="230.92302" cy="238.38998" r="13.149111" fill="rgb(236, 30, 149)" />
<circle cx="210.3967" cy="106.96364" r="13.069805" fill="rgb(124, 252, 129)" />
<circle cx="253.69281" cy="138.34589" r="12.2046995" fill="rgb(43, 124, 73)" />
<circle cx="113.77846" cy="234.12103" r="11.857817" fill="rgb(70, 97, 214)" />
<circle cx="188.46591" cy="264.5209" r="11.408712" fill="rgb(120, 18, 167)" />
<circle cx="146.88713" cy="258.18616" r="11.035654" fill="rgb(209, 113, 65)" />
<circle cx="95.5734" cy="197.15128" r="10.84408" fill="rgb(172, 189, 173)" />
<circle cx="267.03207" cy="182.11433" r="10.549875" fill="rgb(176, 232, 123)" />
<circle cx="217.46883" cy="258.3725" r="10.091663" fill="rgb(182, 94, 22)" />
<circle cx="144.25638" cy="99.58116" r="10.091663" fill="rgb(184, 159, 0)" />
<circle cx="234.61255" cy="110.36524" r="9.610434" fill="rgb(2, 53, 251)" />
<circle cx="103.863785" cy="134.56703" r="9.1602545" fill="rgb(57, 252, 59)" />
<circle cx="127.8199" cy="250.13292" r="8.437254" fill="rgb(19, 131, 130)" />
<circle cx="167.85979" cy="266.5921" r="8.374008" fill="rgb(253, 36, 158)" />
<circle cx="100.58402" cy="216.515" r="8.245967" fill="rgb(134, 234, 216)" />
<circle cx="267.12595" cy="158.98157" r="8.245967" fill="rgb(147, 0, 1)" />
<circle cx="251.81589" cy="234.38411" r="7.8484693" fill="rgb(48, 61, 237)" />
<circle cx="199.62314" cy="127.70939" r="7.5" fill="rgb(111, 151, 255)" />
<circle cx="219.14641" cy="219.31477" r="7.3556547" fill="rgb(124, 163, 43)" />
<circle cx="197.25758" cy="89.92467" r="7.0574384" fill="rgb(178, 34, 80)" />
<circle cx="250.25548" cy="119.27484" r="6.8245554" fill="rgb(232, 131, 73)" />
<circle cx="271.82434" cy="202.58006" r="6.744998" fill="rgb(43, 188, 235)" />
<circle cx="107.88422" cy="119.2155" r="6.5" fill="rgb(240, 12, 168)" />
<circle cx="127.49524" cy="100.90984" r="6.41608" fill="rgb(3, 139, 33)" />
<circle cx="85.05633" cy="181.36755" r="6.3309517" fill="rgb(141, 105, 108)" />
<circle cx="90.89084" cy="145.42856" r="6.3309517" fill="rgb(219, 124, 252)" />
<circle cx="204.55284" cy="272.44348" r="6.3309517" fill="rgb(197, 184, 134)" />
<circle cx="267.82254" cy="218.23598" r="6.156854" fill="rgb(52, 127, 214)" />
<circle cx="159.28917" cy="86.09558" r="6.0677643" fill="rgb(139, 199, 152)" />
<circle cx="247.43306" cy="248.81537" r="6.0677643" fill="rgb(178, 32, 248)" />
<circle cx="116.82657" cy="107.45511" r="5.977226" fill="rgb(203, 103, 56)" />
<circle cx="233.9704" cy="260.53638" r="5.8851647" fill="rgb(197, 234, 202)" />
<circle cx="185.06477" cy="82.742096" r="5.8851647" fill="rgb(74, 150, 17)" />
<circle cx="221.39856" cy="91.212326" r="5.7915025" fill="rgb(187, 242, 215)" />
<circle cx="82.48641" cy="169.31502" r="5.696152" fill="rgb(129, 109, 172)" />
<circle cx="152.91113" cy="274.30508" r="5.5" fill="rgb(148, 191, 217)" />
<circle cx="272.46802" cy="146.20483" r="5.2958317" fill="rgb(173, 66, 15)" />
<circle cx="211.12804" cy="86.430954" r="5.2958317" fill="rgb(156, 127, 244)" />
<circle cx="172.27765" cy="81.640625" r="5.2958317" fill="rgb(195, 238, 230)" />
<circle cx="265.11954" cy="230.36972" r="5.2958317" fill="rgb(220, 252, 11)" />
<circle cx="85.72976" cy="211.37567" r="5.2958317" fill="rgb(234, 15, 91)" />
<circle cx="111.64723" cy="251.24182" r="5.190416" fill="rgb(195, 197, 221)" />
<circle cx="93.84211" cy="229.47946" r="5.082576" fill="rgb(172, 125, 185)" />
<circle cx="128.12071" cy="264.74503" r="5.082576" fill="rgb(136, 180, 97)" />
<circle cx="175.1321" cy="279.2725" r="5.082576" fill="rgb(184, 128, 58)" />
<circle cx="279.32666" cy="171.93533" r="5.082576" fill="rgb(50, 150, 92)" />
<circle cx="263.07364" cy="123.64506" r="4.972136" fill="rgb(6, 21, 64)" />
<circle cx="147.99493" cy="84.65659" r="4.972136" fill="rgb(38, 80, 250)" />
<circle cx="84.97462" cy="158.31569" r="4.7426405" fill="rgb(163, 232, 129)" />
<circle cx="278.9094" cy="191.82315" r="4.6231055" fill="rgb(198, 180, 192)" />
<circle cx="215.86621" cy="273.4132" r="4.6231055" fill="rgb(150, 63, 62)" />
<circle cx="234.63814" cy="95.70097" r="4.5" fill="rgb(187, 106, 205)" />
<circle cx="139.08824" cy="271.93414" r="4.5" fill="rgb(14, 87, 160)" />
<circle cx="249.59096" cy="106.726746" r="4.5" fill="rgb(220, 183, 183)" />
<circle cx="189.80376" cy="280.81485" r="4.5" fill="rgb(162, 129, 100)" />
<circle cx="80.17048" cy="196.84448" r="4.3729835" fill="rgb(111, 219, 110)" />
<circle cx="96.92363" cy="121.05577" r="4.3729835" fill="rgb(76, 28, 186)" />
<circle cx="100.94487" cy="244.24951" r="4.2416573" fill="rgb(86, 16, 50)" />
<circle cx="228.33725" cy="269.0647" r="4.1055512" fill="rgb(246, 77, 242)" />
<circle cx="160.95674" cy="280.10114" r="4.1055512" fill="rgb(198, 34, 49)" />
<circle cx="279.2217" cy="155.5032" r="4.1055512" fill="rgb(222, 214, 183)" />
<circle cx="272.417" cy="136.27003" r="4.1055512" fill="rgb(240, 47, 102)" />
<circle cx="203.30771" cy="80.291275" r="4.1055512" fill="rgb(103, 157, 41)" />
<circle cx="133.86841" cy="154.26462" r="3.9641016" fill="rgb(109, 140, 77)" />
<circle cx="135.31363" cy="88.48834" r="3.9641016" fill="rgb(186, 220, 152)" />
<circle cx="91.45655" cy="129.63486" r="3.9641016" fill="rgb(31, 183, 85)" />
<circle cx="260.72403" cy="242.39702" r="3.9641016" fill="rgb(47, 236, 33)" />
<circle cx="116.11111" cy="260.1511" r="3.9641016" fill="rgb(29, 68, 253)" />
<circle cx="225.05513" cy="154.12303" r="3.8166249" fill="rgb(187, 2, 24)" />
<circle cx="128.60011" cy="189.10254" r="3.8166249" fill="rgb(179, 86, 233)" />
<circle cx="203.27829" cy="257.1263" r="3.8166249" fill="rgb(230, 196, 178)" />
<circle cx="243.5041" cy="258.19534" r="3.8166249" fill="rgb(254, 173, 7)" />
<circle cx="85.5453" cy="221.38754" r="3.8166249" fill="rgb(97, 48, 4)" />
<circle cx="277.85843" cy="213.2201" r="3.8166249" fill="rgb(219, 45, 38)" />
<circle cx="283.3656" cy="182.8162" r="3.8166249" fill="rgb(150, 39, 53)" />
<circle cx="194.7071" cy="79.288956" r="3.6622777" fill="rgb(197, 86, 202)" />
<circle cx="105.5958" cy="107.696266" r="3.6622777" fill="rgb(104, 208, 208)" />
<circle cx="158.39545" cy="133.2078" r="3.5" fill="rgb(57, 140, 54)" />
<circle cx="232.36453" cy="183.31384" r="3.5" fill="rgb(22, 49, 197)" />
<circle cx="81.08407" cy="150.82736" r="3.5" fill="rgb(76, 221, 95)" />
<circle cx="261.00366" cy="115.49892" r="3.328427" fill="rgb(204, 29, 231)" />
<circle cx="245.79314" cy="99.177704" r="3.328427" fill="rgb(3, 16, 183)" />
<circle cx="119.76602" cy="94.76568" r="3.328427" fill="rgb(134, 168, 49)" />
<circle cx="75.71485" cy="184.54932" r="3.328427" fill="rgb(98, 23, 109)" />
<circle cx="78.6977" cy="205.1715" r="3.328427" fill="rgb(35, 147, 100)" />
<circle cx="198.02263" cy="282.86838" r="3.328427" fill="rgb(26, 63, 36)" />
<circle cx="239.53998" cy="122.44222" r="3.1457512" fill="rgb(209, 162, 80)" />
<circle cx="227.43225" cy="98.638954" r="3.1457512" fill="rgb(25, 1, 75)" />
<circle cx="277.68478" cy="163.66086" r="3.1457512" fill="rgb(12, 6, 137)" />
<circle cx="257.13104" cy="248.66914" r="3.1457512" fill="rgb(16, 162, 133)" />
<circle cx="282.60922" cy="200.44812" r="3.1457512" fill="rgb(37, 253, 62)" />
<circle cx="239.35254" cy="146.1958" r="2.9494898" fill="rgb(3, 122, 187)" />
<circle cx="98.85512" cy="236.23584" r="2.9494898" fill="rgb(34, 15, 82)" />
<circle cx="268.0763" cy="130.57327" r="2.9494898" fill="rgb(101, 209, 79)" />
<circle cx="178.33614" cy="75.69294" r="2.9494898" fill="rgb(235, 3, 96)" />
<circle cx="145.17734" cy="277.75012" r="2.736068" fill="rgb(165, 98, 189)" />
<circle cx="266.4763" cy="238.7586" r="2.736068" fill="rgb(14, 127, 75)" />
<circle cx="166.28128" cy="75.93887" r="2.736068" fill="rgb(213, 29, 234)" />
<circle cx="155.97185" cy="77.81589" r="2.736068" fill="rgb(179, 198, 65)" />
<circle cx="126.869896" cy="89.44135" r="2.736068" fill="rgb(96, 116, 247)" />
<circle cx="109.94914" cy="101.778206" r="2.736068" fill="rgb(119, 219, 93)" />
<circle cx="85.02645" cy="135.19107" r="2.736068" fill="rgb(66, 44, 43)" />
<circle cx="75.074974" cy="175.68619" r="2.736068" fill="rgb(212, 89, 211)" />
<circle cx="189.2572" cy="130.01685" r="2.5" fill="rgb(25, 52, 215)" />
<circle cx="208.81674" cy="222.89905" r="2.5" fill="rgb(88, 18, 162)" />
<circle cx="217.79247" cy="229.62395" r="2.5" fill="rgb(100, 177, 137)" />
<circle cx="208.44818" cy="122.65992" r="2.5" fill="rgb(170, 37, 213)" />
<circle cx="112.0417" cy="192.91832" r="2.5" fill="rgb(79, 21, 105)" />
<circle cx="253.7763" cy="183.30487" r="2.5" fill="rgb(77, 17, 178)" />
<circle cx="142.43181" cy="213.431" r="2.232051" fill="rgb(52, 9, 19)" />
<circle cx="163.09076" cy="227.38484" r="2.232051" fill="rgb(146, 244, 249)" />
<circle cx="187.93526" cy="229.72762" r="2.232051" fill="rgb(176, 147, 249)" />
<circle cx="221.3391" cy="208.96681" r="2.232051" fill="rgb(30, 23, 203)" />
<circle cx="156.13701" cy="125.950836" r="1.9142135" fill="rgb(17, 130, 249)" />
<circle cx="232.19838" cy="150.14975" r="1.9142135" fill="rgb(6, 80, 162)" />
<circle cx="204.47592" cy="136.93886" r="1.5" fill="rgb(42, 26, 19)" />
</svg>
